<?xml version="1.0" standalone="no"?><!DOCTYPE svg PUBLIC "-//W3C//DTD SVG 1.1//EN" "http://www.w3.org/Graphics/SVG/1.1/DTD/svg11.dtd"><svg t="1715308165303" class="icon" viewBox="0 0 1024 1024" version="1.1" xmlns="http://www.w3.org/2000/svg" p-id="5422" xmlns:xlink="http://www.w3.org/1999/xlink" width="200" height="200"><path d="M328.56 134.272a94.704 94.704 0 0 0 96-34.976C463.136 48.944 523.744 16 592 16c94.944 0 175.12 63.76 200.016 150.752a47.552 47.552 0 0 0 33.232 33.232C912.24 224.88 976 305.056 976 400c0 114.8-93.2 208-208 208-104.656 0-191.36-77.456-205.872-178.128-12.672-1.824-24.976-4.8-36.8-8.8C507.344 544.816 400.704 640 272 640 130.704 640 16 525.296 16 384S130.704 128 272 128c19.424 0 38.368 2.176 56.56 6.272z" fill="#CBE9EA" p-id="5423"></path><path d="M181.04 806.432C79.76 753.696 16 677.136 16 592c0-158.944 222.256-288 496-288s496 129.056 496 288-222.256 288-496 288c-73.584 0-143.44-9.328-206.256-26.048L128 1008l53.04-201.568z" fill="#FFD140" p-id="5424"></path><path d="M181.04 790.432s284.224 62.848 538.96-16c389.168-120.432 120.88-412.624 216.16-327.632C977.28 483.488 1008 551.824 1008 592c0 158.944-222.256 288-496 288-73.584 0-143.44-9.328-206.256-26.048L128 1008l53.04-217.568z" fill="#D9B236" p-id="5425"></path><path d="M288 584m-56 0a56 56 0 1 0 112 0 56 56 0 1 0-112 0Z" fill="#FFFFFF" p-id="5426"></path><path d="M512 584m-56 0a56 56 0 1 0 112 0 56 56 0 1 0-112 0Z" fill="#FFFFFF" p-id="5427"></path><path d="M736 584m-56 0a56 56 0 1 0 112 0 56 56 0 1 0-112 0Z" fill="#FFFFFF" p-id="5428"></path><path d="M554.496 245.76A196.464 196.464 0 0 1 576 336c0 97.136-68.112 176-152 176a132.944 132.944 0 0 1-46.192-8.288A159.712 159.712 0 0 1 256 560c-88.304 0-160-71.696-160-160 0-15.696 2.272-30.864 6.48-45.216" fill="#CBE9EA" p-id="5429"></path><path d="M369.072 435.104c57.648 42.512 177.456-17.52 185.424-189.344C555.872 216.08 576 303.024 576 336c0 97.136-68.112 176-152 176a132.944 132.944 0 0 1-46.192-8.288A159.712 159.712 0 0 1 256 560c-88.304 0-160-71.696-160-160 0-15.696 1.36-59.248 6.48-45.216 94.608 259.056 262.544 106.224 266.592 80.32" fill="#ADC6C7" p-id="5430"></path></svg>